<svg width="169" height="169" viewBox="0 0 169 169" fill="none" xmlns="http://www.w3.org/2000/svg">
<rect width="169" height="169" fill="white"/>
<path d="M56.5 48C56.5 46.6193 57.6193 45.5 59 45.5H109C110.381 45.5 111.5 46.6193 111.5 48V122C111.5 123.381 110.381 124.5 109 124.5H59C57.6193 124.5 56.5 123.381 56.5 122V48Z" fill="#A8A4A3" stroke="#767575"/>
<rect x="60.5" y="48.5" width="48" height="21" rx="3.5" fill="#D9D9D9" stroke="#767575"/>
<rect x="59.5" y="73.5" width="14" height="13" rx="3.5" fill="#D9D9D9" stroke="#767575"/>
<rect x="59.5" y="90.5" width="14" height="13" rx="3.5" fill="#D9D9D9" stroke="#767575"/>
<rect x="76.5" y="73.5" width="14" height="13" rx="3.5" fill="#D9D9D9" stroke="#767575"/>
<rect x="76.5" y="90.5" width="14" height="13" rx="3.5" fill="#D9D9D9" stroke="#767575"/>
<rect x="59.5" y="108.5" width="14" height="13" rx="3.5" fill="#D9D9D9" stroke="#767575"/>
<rect x="93.5" y="73.5" width="14" height="13" rx="3.5" fill="#D9D9D9" stroke="#767575"/>
<rect x="76.5" y="108.5" width="14" height="13" rx="3.5" fill="#D9D9D9" stroke="#767575"/>
<rect x="93.5" y="90.5" width="14" height="30" rx="3.5" fill="#D9D9D9" stroke="#767575"/>
</svg>
