<svg width="62" height="30" viewBox="0 0 62 30" fill="none" xmlns="http://www.w3.org/2000/svg">
<rect width="62" height="30" fill="white"/>
<path d="M19.68 16.8C19.3067 16.8 18.9733 16.6667 18.68 16.4C18.4133 16.1067 18.28 15.7733 18.28 15.4C18.28 15.0267 18.4133 14.7067 18.68 14.44C18.9733 14.1467 19.3067 14 19.68 14H41.52C41.5733 14 41.6133 13.9733 41.64 13.92C41.6667 13.8667 41.6667 13.8133 41.64 13.76L35.44 8.36C35.1733 8.12 35.0267 7.82667 35 7.48C34.9733 7.13333 35.08 6.82667 35.32 6.56C35.5333 6.29333 35.8133 6.14667 36.16 6.12C36.5067 6.09333 36.8133 6.2 37.08 6.44L45.64 13.92C46.0933 14.32 46.32 14.8133 46.32 15.4C46.32 15.9867 46.0933 16.48 45.64 16.88L37.08 24.36C36.8133 24.6 36.5067 24.7067 36.16 24.68C35.8133 24.6533 35.5333 24.5067 35.32 24.24C35.08 23.9733 34.9733 23.6667 35 23.32C35.0267 22.9733 35.1733 22.68 35.44 22.44L41.64 17.04C41.6933 16.9333 41.6533 16.8533 41.52 16.8H19.68Z" fill="black"/>
</svg>
