<svg width="69" height="69" viewBox="0 0 69 69" fill="none" xmlns="http://www.w3.org/2000/svg">
<path d="M24.0888 18.5769H44.503C45.0667 18.5769 45.5237 19.0339 45.5237 19.5977V49.8107C45.5237 50.3744 45.0667 50.8314 44.503 50.8314H24.0888C23.525 50.8314 23.068 50.3744 23.068 49.8107V19.5977C23.068 19.0339 23.525 18.5769 24.0888 18.5769Z" stroke="black" stroke-width="0.408284"/>
<rect x="24.7012" y="19.8018" width="19.5976" height="8.57397" rx="1.42899" stroke="black" stroke-width="0.408284"/>
<rect x="24.2929" y="30.0089" width="5.71598" height="5.30769" rx="1.42899" stroke="black" stroke-width="0.408284"/>
<rect x="24.2929" y="36.9497" width="5.71598" height="5.30769" rx="1.42899" stroke="black" stroke-width="0.408284"/>
<rect x="31.2337" y="30.0089" width="5.71598" height="5.30769" rx="1.42899" stroke="black" stroke-width="0.408284"/>
<rect x="31.2337" y="36.9497" width="5.71598" height="5.30769" rx="1.42899" stroke="black" stroke-width="0.408284"/>
<rect x="24.2929" y="44.2988" width="5.71598" height="5.30769" rx="1.42899" stroke="black" stroke-width="0.408284"/>
<rect x="38.1746" y="30.0089" width="5.71598" height="5.30769" rx="1.42899" stroke="black" stroke-width="0.408284"/>
<rect x="31.2337" y="44.2988" width="5.71598" height="5.30769" rx="1.42899" stroke="black" stroke-width="0.408284"/>
<rect x="38.1746" y="36.9497" width="5.71598" height="12.2485" rx="1.42899" stroke="black" stroke-width="0.408284"/>
</svg>
