<svg width="169" height="169" viewBox="0 0 169 169" fill="none" xmlns="http://www.w3.org/2000/svg">
<path d="M128.491 69C128.491 83.637 116.598 95.5046 101.925 95.5046C87.2517 95.5046 75.3587 83.637 75.3587 69C75.3587 54.3629 87.2517 42.4953 101.925 42.4953C116.598 42.4953 128.491 54.3629 128.491 69Z" fill="#FF0000" stroke="black" stroke-width="0.990737"/>
<path d="M114.66 69.9C114.66 77.0812 108.824 82.9046 101.624 82.9046C94.4238 82.9046 88.5888 77.0812 88.5888 69.9C88.5888 62.7188 94.4238 56.8954 101.624 56.8954C108.824 56.8954 114.66 62.7188 114.66 69.9Z" fill="black" stroke="black" stroke-width="0.990737"/>
<line x1="122.842" y1="70.1033" x2="134.869" y2="70.1033" stroke="black" stroke-width="0.990737"/>
<line x1="101.819" y1="90" x2="101.819" y2="102" stroke="black" stroke-width="0.990737"/>
<line x1="69" y1="70.1033" x2="81.0273" y2="70.1033" stroke="black" stroke-width="0.990737"/>
<line x1="101.819" y1="36" x2="101.819" y2="48" stroke="black" stroke-width="0.990737"/>
<ellipse cx="102.067" cy="70.6658" rx="1.8041" ry="1.8" fill="white"/>
<g filter="url(#filter0_f_40_312)">
<path d="M34.5 56C34.5 54.6193 35.6193 53.5 37 53.5H87C88.3807 53.5 89.5 54.6193 89.5 56V130C89.5 131.381 88.3807 132.5 87 132.5H37C35.6193 132.5 34.5 131.381 34.5 130V56Z" fill="#A8A4A3" stroke="#767575"/>
<rect x="38.5" y="56.5" width="48" height="21" rx="3.5" fill="#D9D9D9" stroke="#767575"/>
<rect x="37.5" y="81.5" width="14" height="13" rx="3.5" fill="#D9D9D9" stroke="#767575"/>
<rect x="37.5" y="98.5" width="14" height="13" rx="3.5" fill="#D9D9D9" stroke="#767575"/>
<rect x="54.5" y="81.5" width="14" height="13" rx="3.5" fill="#D9D9D9" stroke="#767575"/>
<rect x="54.5" y="98.5" width="14" height="13" rx="3.5" fill="#D9D9D9" stroke="#767575"/>
<rect x="37.5" y="116.5" width="14" height="13" rx="3.5" fill="#D9D9D9" stroke="#767575"/>
<rect x="71.5" y="81.5" width="14" height="13" rx="3.5" fill="#D9D9D9" stroke="#767575"/>
<rect x="54.5" y="116.5" width="14" height="13" rx="3.5" fill="#D9D9D9" stroke="#767575"/>
<rect x="71.5" y="98.5" width="14" height="30" rx="3.5" fill="#D9D9D9" stroke="#767575"/>
</g>
<defs>
<filter id="filter0_f_40_312" x="33" y="52" width="58" height="82" filterUnits="userSpaceOnUse" color-interpolation-filters="sRGB">
<feFlood flood-opacity="0" result="BackgroundImageFix"/>
<feBlend mode="normal" in="SourceGraphic" in2="BackgroundImageFix" result="shape"/>
<feGaussianBlur stdDeviation="0.5" result="effect1_foregroundBlur_40_312"/>
</filter>
</defs>
</svg>
