<svg width="171" height="169" viewBox="0 0 171 169" fill="none" xmlns="http://www.w3.org/2000/svg">
<g clip-path="url(#clip0_31_76)">
<g filter="url(#filter0_f_31_76)">
<line x1="137.245" y1="133.88" x2="137.245" y2="156.857" stroke="#A8A4A3" stroke-width="2.41429"/>
</g>
<g filter="url(#filter1_f_31_76)">
<line x1="109.731" y1="122.891" x2="109.731" y2="145.868" stroke="#A8A4A3" stroke-width="2.41429"/>
</g>
<g filter="url(#filter2_f_31_76)">
<line x1="109.731" y1="104.908" x2="109.731" y2="127.886" stroke="#A8A4A3" stroke-width="2.41429"/>
</g>
<g filter="url(#filter3_f_31_76)">
<line x1="57.0952" y1="52.9596" x2="57.0952" y2="87.9251" stroke="#A8A4A3" stroke-width="2.41429"/>
</g>
<g filter="url(#filter4_f_31_76)">
<line x1="57.0952" y1="103.909" x2="57.0952" y2="126.887" stroke="#A8A4A3" stroke-width="2.41429"/>
</g>
<g filter="url(#filter5_f_31_76)">
<line x1="30.7773" y1="99.9133" x2="30.7773" y2="122.891" stroke="#A8A4A3" stroke-width="2.41429"/>
</g>
<g filter="url(#filter6_f_31_76)">
<rect x="20" y="59.9527" width="20.3366" height="53.9468" fill="#D9D9D9"/>
<rect x="21.2071" y="61.1599" width="17.9223" height="51.5325" stroke="#A8A4A3" stroke-width="2.41429"/>
</g>
<g filter="url(#filter7_f_31_76)">
<rect x="46.3179" y="69.9429" width="20.3366" height="45.9547" fill="#D9D9D9"/>
<rect x="47.525" y="71.15" width="17.9223" height="43.5404" stroke="#A8A4A3" stroke-width="2.41429"/>
</g>
<g filter="url(#filter8_f_31_76)">
<rect x="72.6357" y="103.909" width="20.3366" height="22.9773" fill="#D9D9D9"/>
<rect x="73.8429" y="105.117" width="17.9223" height="20.5631" stroke="#A8A4A3" stroke-width="2.41429"/>
</g>
<g filter="url(#filter9_f_31_76)">
<rect x="98.9536" y="110.902" width="20.3366" height="28.9714" fill="#D9D9D9"/>
<rect x="100.161" y="112.11" width="17.9223" height="26.5571" stroke="#A8A4A3" stroke-width="2.41429"/>
</g>
<g filter="url(#filter10_f_31_76)">
<line x1="30.7773" y1="36.9753" x2="30.7773" y2="59.9527" stroke="#A8A4A3" stroke-width="2.41429"/>
</g>
<g filter="url(#filter11_f_31_76)">
<line x1="137.245" y1="104.908" x2="137.245" y2="127.886" stroke="#A8A4A3" stroke-width="2.41429"/>
</g>
<g filter="url(#filter12_f_31_76)">
<line x1="83.413" y1="92.9202" x2="83.413" y2="104.908" stroke="#A8A4A3" stroke-width="2.41429"/>
</g>
<g filter="url(#filter13_f_31_76)">
<rect x="125.272" y="120.893" width="20.3366" height="28.9714" fill="#D9D9D9"/>
<rect x="126.479" y="122.1" width="17.9223" height="26.5571" stroke="#A8A4A3" stroke-width="2.41429"/>
</g>
<g filter="url(#filter14_d_31_76)">
<path d="M90.7567 19.0721C92.7022 15.8561 97.3675 15.8561 99.313 19.0721L137.583 82.3352C139.598 85.6675 137.199 89.9231 133.304 89.9231H56.7652C52.8707 89.9231 50.4713 85.6675 52.4871 82.3352L90.7567 19.0721Z" fill="#E1612A"/>
<path d="M91.1845 19.3309C92.9355 16.4365 97.1342 16.4365 98.8852 19.3309L137.155 82.594C138.969 85.593 136.81 89.4231 133.304 89.4231H56.7652C53.2601 89.4231 51.1007 85.593 52.9149 82.594L91.1845 19.3309Z" stroke="black"/>
</g>
<path d="M98.0921 67.0818C97.4143 67.5794 96.5672 67.8282 95.5506 67.8282C94.534 67.8282 93.6626 67.5794 92.9365 67.0818C92.2588 66.5487 91.8957 65.909 91.8473 65.1626L90.9759 43.1453C90.9275 42.3279 91.2906 41.6171 92.0651 41.0129C92.8881 40.4087 93.8563 40.1066 94.9697 40.1066H96.1315C97.2449 40.1066 98.1889 40.4087 98.9634 41.0129C99.7864 41.6171 100.174 42.3279 100.125 43.1453L99.2539 65.1626C99.2055 65.909 98.8182 66.5487 98.0921 67.0818ZM95.7684 72.093C96.8818 72.093 97.85 72.3951 98.673 72.9993C99.4959 73.6035 99.9074 74.3143 99.9074 75.1318V75.9847C99.9074 76.8022 99.4959 77.513 98.673 78.1172C97.85 78.7213 96.8818 79.0234 95.7684 79.0234H95.3327C94.2193 79.0234 93.2512 78.7213 92.4282 78.1172C91.6052 77.513 91.1938 76.8022 91.1938 75.9847V75.1318C91.1938 74.3143 91.6052 73.6035 92.4282 72.9993C93.2512 72.3951 94.2193 72.093 95.3327 72.093H95.7684Z" fill="white"/>
<g clip-path="url(#clip1_31_76)">
<g filter="url(#filter15_f_31_76)">
<line x1="83.413" y1="119.894" x2="83.413" y2="134.879" stroke="#A8A4A3" stroke-width="2.41429"/>
</g>
</g>
</g>
<defs>
<filter id="filter0_f_31_76" x="133.624" y="131.466" width="7.24286" height="27.8059" filterUnits="userSpaceOnUse" color-interpolation-filters="sRGB">
<feFlood flood-opacity="0" result="BackgroundImageFix"/>
<feBlend mode="normal" in="SourceGraphic" in2="BackgroundImageFix" result="shape"/>
<feGaussianBlur stdDeviation="1.20714" result="effect1_foregroundBlur_31_76"/>
</filter>
<filter id="filter1_f_31_76" x="106.109" y="120.476" width="7.24286" height="27.8059" filterUnits="userSpaceOnUse" color-interpolation-filters="sRGB">
<feFlood flood-opacity="0" result="BackgroundImageFix"/>
<feBlend mode="normal" in="SourceGraphic" in2="BackgroundImageFix" result="shape"/>
<feGaussianBlur stdDeviation="1.20714" result="effect1_foregroundBlur_31_76"/>
</filter>
<filter id="filter2_f_31_76" x="106.109" y="102.494" width="7.24286" height="27.8059" filterUnits="userSpaceOnUse" color-interpolation-filters="sRGB">
<feFlood flood-opacity="0" result="BackgroundImageFix"/>
<feBlend mode="normal" in="SourceGraphic" in2="BackgroundImageFix" result="shape"/>
<feGaussianBlur stdDeviation="1.20714" result="effect1_foregroundBlur_31_76"/>
</filter>
<filter id="filter3_f_31_76" x="53.4737" y="50.5453" width="7.24286" height="39.7941" filterUnits="userSpaceOnUse" color-interpolation-filters="sRGB">
<feFlood flood-opacity="0" result="BackgroundImageFix"/>
<feBlend mode="normal" in="SourceGraphic" in2="BackgroundImageFix" result="shape"/>
<feGaussianBlur stdDeviation="1.20714" result="effect1_foregroundBlur_31_76"/>
</filter>
<filter id="filter4_f_31_76" x="53.4737" y="101.495" width="7.24286" height="27.8059" filterUnits="userSpaceOnUse" color-interpolation-filters="sRGB">
<feFlood flood-opacity="0" result="BackgroundImageFix"/>
<feBlend mode="normal" in="SourceGraphic" in2="BackgroundImageFix" result="shape"/>
<feGaussianBlur stdDeviation="1.20714" result="effect1_foregroundBlur_31_76"/>
</filter>
<filter id="filter5_f_31_76" x="27.1558" y="97.499" width="7.24285" height="27.8059" filterUnits="userSpaceOnUse" color-interpolation-filters="sRGB">
<feFlood flood-opacity="0" result="BackgroundImageFix"/>
<feBlend mode="normal" in="SourceGraphic" in2="BackgroundImageFix" result="shape"/>
<feGaussianBlur stdDeviation="1.20714" result="effect1_foregroundBlur_31_76"/>
</filter>
<filter id="filter6_f_31_76" x="17.5857" y="57.5384" width="25.1651" height="58.7754" filterUnits="userSpaceOnUse" color-interpolation-filters="sRGB">
<feFlood flood-opacity="0" result="BackgroundImageFix"/>
<feBlend mode="normal" in="SourceGraphic" in2="BackgroundImageFix" result="shape"/>
<feGaussianBlur stdDeviation="1.20714" result="effect1_foregroundBlur_31_76"/>
</filter>
<filter id="filter7_f_31_76" x="43.9036" y="67.5286" width="25.1651" height="50.7833" filterUnits="userSpaceOnUse" color-interpolation-filters="sRGB">
<feFlood flood-opacity="0" result="BackgroundImageFix"/>
<feBlend mode="normal" in="SourceGraphic" in2="BackgroundImageFix" result="shape"/>
<feGaussianBlur stdDeviation="1.20714" result="effect1_foregroundBlur_31_76"/>
</filter>
<filter id="filter8_f_31_76" x="70.2215" y="101.495" width="25.1651" height="27.8059" filterUnits="userSpaceOnUse" color-interpolation-filters="sRGB">
<feFlood flood-opacity="0" result="BackgroundImageFix"/>
<feBlend mode="normal" in="SourceGraphic" in2="BackgroundImageFix" result="shape"/>
<feGaussianBlur stdDeviation="1.20714" result="effect1_foregroundBlur_31_76"/>
</filter>
<filter id="filter9_f_31_76" x="96.5394" y="108.488" width="25.1651" height="33.8" filterUnits="userSpaceOnUse" color-interpolation-filters="sRGB">
<feFlood flood-opacity="0" result="BackgroundImageFix"/>
<feBlend mode="normal" in="SourceGraphic" in2="BackgroundImageFix" result="shape"/>
<feGaussianBlur stdDeviation="1.20714" result="effect1_foregroundBlur_31_76"/>
</filter>
<filter id="filter10_f_31_76" x="27.1558" y="34.5611" width="7.24285" height="27.8059" filterUnits="userSpaceOnUse" color-interpolation-filters="sRGB">
<feFlood flood-opacity="0" result="BackgroundImageFix"/>
<feBlend mode="normal" in="SourceGraphic" in2="BackgroundImageFix" result="shape"/>
<feGaussianBlur stdDeviation="1.20714" result="effect1_foregroundBlur_31_76"/>
</filter>
<filter id="filter11_f_31_76" x="133.624" y="102.494" width="7.24286" height="27.8059" filterUnits="userSpaceOnUse" color-interpolation-filters="sRGB">
<feFlood flood-opacity="0" result="BackgroundImageFix"/>
<feBlend mode="normal" in="SourceGraphic" in2="BackgroundImageFix" result="shape"/>
<feGaussianBlur stdDeviation="1.20714" result="effect1_foregroundBlur_31_76"/>
</filter>
<filter id="filter12_f_31_76" x="79.7916" y="90.5059" width="7.24286" height="16.8168" filterUnits="userSpaceOnUse" color-interpolation-filters="sRGB">
<feFlood flood-opacity="0" result="BackgroundImageFix"/>
<feBlend mode="normal" in="SourceGraphic" in2="BackgroundImageFix" result="shape"/>
<feGaussianBlur stdDeviation="1.20714" result="effect1_foregroundBlur_31_76"/>
</filter>
<filter id="filter13_f_31_76" x="122.857" y="118.478" width="25.1651" height="33.8" filterUnits="userSpaceOnUse" color-interpolation-filters="sRGB">
<feFlood flood-opacity="0" result="BackgroundImageFix"/>
<feBlend mode="normal" in="SourceGraphic" in2="BackgroundImageFix" result="shape"/>
<feGaussianBlur stdDeviation="1.20714" result="effect1_foregroundBlur_31_76"/>
</filter>
<filter id="filter14_d_31_76" x="42.1003" y="16.6601" width="105.869" height="92.5773" filterUnits="userSpaceOnUse" color-interpolation-filters="sRGB">
<feFlood flood-opacity="0" result="BackgroundImageFix"/>
<feColorMatrix in="SourceAlpha" type="matrix" values="0 0 0 0 0 0 0 0 0 0 0 0 0 0 0 0 0 0 127 0" result="hardAlpha"/>
<feOffset dy="9.65714"/>
<feGaussianBlur stdDeviation="4.82857"/>
<feComposite in2="hardAlpha" operator="out"/>
<feColorMatrix type="matrix" values="0 0 0 0 0 0 0 0 0 0 0 0 0 0 0 0 0 0 0.25 0"/>
<feBlend mode="normal" in2="BackgroundImageFix" result="effect1_dropShadow_31_76"/>
<feBlend mode="normal" in="SourceGraphic" in2="effect1_dropShadow_31_76" result="shape"/>
</filter>
<filter id="filter15_f_31_76" x="79.7916" y="117.479" width="7.24286" height="19.8138" filterUnits="userSpaceOnUse" color-interpolation-filters="sRGB">
<feFlood flood-opacity="0" result="BackgroundImageFix"/>
<feBlend mode="normal" in="SourceGraphic" in2="BackgroundImageFix" result="shape"/>
<feGaussianBlur stdDeviation="1.20714" result="effect1_foregroundBlur_31_76"/>
</filter>
<clipPath id="clip0_31_76">
<rect width="169" height="169" fill="white" transform="translate(2)"/>
</clipPath>
<clipPath id="clip1_31_76">
<rect width="14.574" height="72.4286" fill="white" transform="translate(71.8188 104.857)"/>
</clipPath>
</defs>
</svg>
