<svg width="35" height="18" viewBox="0 0 35 18" fill="none" xmlns="http://www.w3.org/2000/svg">
<path d="M2.304 6.368V9.26C2.304 9.332 2.34 9.368 2.412 9.368H3.024C4.72 9.368 5.568 8.792 5.568 7.64C5.568 7.152 5.384 6.788 5.016 6.548C4.656 6.3 4.072 6.176 3.264 6.176C2.96 6.176 2.672 6.2 2.4 6.248C2.336 6.264 2.304 6.304 2.304 6.368ZM2.112 13.808C1.984 13.936 1.828 14 1.644 14C1.46 14 1.304 13.936 1.176 13.808C1.048 13.68 0.984 13.524 0.984 13.34V5.984C0.984 5.784 1.048 5.612 1.176 5.468C1.304 5.316 1.468 5.232 1.668 5.216C2.26 5.152 2.832 5.12 3.384 5.12C4.536 5.12 5.404 5.332 5.988 5.756C6.572 6.18 6.864 6.768 6.864 7.52C6.864 8.128 6.708 8.648 6.396 9.08C6.092 9.504 5.672 9.8 5.136 9.968C5.128 9.968 5.124 9.972 5.124 9.98C5.124 9.996 5.128 10.004 5.136 10.004C5.48 10.236 5.796 10.708 6.084 11.42L6.852 13.364C6.916 13.516 6.9 13.66 6.804 13.796C6.708 13.932 6.58 14 6.42 14C6.212 14 6.024 13.944 5.856 13.832C5.688 13.712 5.568 13.556 5.496 13.364L4.74 11.42C4.572 10.988 4.384 10.712 4.176 10.592C3.976 10.464 3.592 10.4 3.024 10.4H2.412C2.34 10.4 2.304 10.436 2.304 10.508V13.34C2.304 13.524 2.24 13.68 2.112 13.808ZM8.67853 5.66C8.67853 5.476 8.74253 5.32 8.87053 5.192C9.00653 5.064 9.16253 5 9.33853 5C9.51453 5 9.66653 5.064 9.79453 5.192C9.93053 5.32 9.99853 5.476 9.99853 5.66C9.99853 5.844 9.93053 6 9.79453 6.128C9.66653 6.256 9.51453 6.32 9.33853 6.32C9.16253 6.32 9.00653 6.256 8.87053 6.128C8.74253 6 8.67853 5.844 8.67853 5.66ZM9.79453 13.808C9.66653 13.936 9.51453 14 9.33853 14C9.16253 14 9.00653 13.936 8.87053 13.808C8.74253 13.68 8.67853 13.524 8.67853 13.34V8.42C8.67853 8.236 8.74253 8.08 8.87053 7.952C9.00653 7.824 9.16253 7.76 9.33853 7.76C9.51453 7.76 9.66653 7.824 9.79453 7.952C9.93053 8.08 9.99853 8.236 9.99853 8.42V13.34C9.99853 13.524 9.93053 13.68 9.79453 13.808ZM14.1892 11.36C13.3732 11.16 12.7972 10.908 12.4612 10.604C12.1332 10.292 11.9692 9.904 11.9692 9.44C11.9692 8.88 12.1692 8.44 12.5692 8.12C12.9772 7.8 13.5772 7.64 14.3692 7.64C14.8812 7.64 15.3972 7.696 15.9172 7.808C16.0612 7.84 16.1772 7.92 16.2652 8.048C16.3612 8.168 16.4092 8.304 16.4092 8.456C16.4092 8.584 16.3572 8.684 16.2532 8.756C16.1492 8.828 16.0372 8.844 15.9172 8.804C15.4132 8.668 14.9372 8.6 14.4892 8.6C13.6492 8.6 13.2292 8.84 13.2292 9.32C13.2292 9.56 13.3092 9.756 13.4692 9.908C13.6292 10.06 13.9092 10.184 14.3092 10.28C15.2292 10.496 15.8492 10.756 16.1692 11.06C16.4892 11.356 16.6492 11.796 16.6492 12.38C16.6492 12.924 16.4372 13.352 16.0132 13.664C15.5972 13.968 14.9892 14.12 14.1892 14.12C13.6692 14.12 13.1492 14.052 12.6292 13.916C12.4852 13.876 12.3692 13.796 12.2812 13.676C12.1932 13.548 12.1492 13.408 12.1492 13.256C12.1492 13.136 12.1972 13.04 12.2932 12.968C12.3972 12.896 12.5052 12.88 12.6172 12.92C13.1132 13.08 13.5972 13.16 14.0692 13.16C14.9492 13.16 15.3892 12.9 15.3892 12.38C15.3892 12.132 15.3012 11.932 15.1252 11.78C14.9492 11.62 14.6372 11.48 14.1892 11.36ZM19.324 13.82C19.204 13.94 19.056 14 18.88 14C18.704 14 18.556 13.94 18.436 13.82C18.316 13.7 18.256 13.552 18.256 13.376V5.624C18.256 5.448 18.316 5.3 18.436 5.18C18.556 5.06 18.704 5 18.88 5C19.056 5 19.204 5.06 19.324 5.18C19.452 5.3 19.516 5.448 19.516 5.624V10.508C19.516 10.516 19.52 10.52 19.528 10.52L19.552 10.508L21.688 8.252C22 7.924 22.384 7.76 22.84 7.76H22.972C23.1 7.76 23.188 7.82 23.236 7.94C23.292 8.06 23.276 8.164 23.188 8.252L20.848 10.688C20.808 10.728 20.808 10.776 20.848 10.832L23.2 13.496C23.288 13.592 23.304 13.7 23.248 13.82C23.2 13.94 23.108 14 22.972 14H22.84C22.392 14 22.016 13.828 21.712 13.484L19.552 11.012C19.544 11.004 19.536 11 19.528 11C19.52 11 19.516 11.004 19.516 11.012V13.376C19.516 13.552 19.452 13.7 19.324 13.82ZM29.9492 12.884C29.9412 12.892 29.9372 12.9 29.9372 12.908C29.9372 12.916 29.9412 12.92 29.9492 12.92H33.1172C33.2692 12.92 33.3972 12.972 33.5012 13.076C33.6052 13.18 33.6572 13.308 33.6572 13.46C33.6572 13.612 33.6052 13.74 33.5012 13.844C33.3972 13.948 33.2692 14 33.1172 14H28.6772C28.5252 14 28.3972 13.948 28.2932 13.844C28.1892 13.74 28.1372 13.612 28.1372 13.46C28.1372 13.108 28.2772 12.816 28.5572 12.584C30.0132 11.408 30.9972 10.476 31.5092 9.788C32.0292 9.092 32.2892 8.416 32.2892 7.76C32.2892 6.736 31.7452 6.224 30.6572 6.224C30.1212 6.224 29.5292 6.364 28.8812 6.644C28.7452 6.7 28.6172 6.692 28.4972 6.62C28.3772 6.548 28.3172 6.44 28.3172 6.296C28.3172 6.096 28.3692 5.916 28.4732 5.756C28.5772 5.596 28.7212 5.488 28.9052 5.432C29.5532 5.224 30.1972 5.12 30.8372 5.12C31.7332 5.12 32.4252 5.344 32.9132 5.792C33.4092 6.232 33.6572 6.848 33.6572 7.64C33.6572 8.432 33.4012 9.204 32.8892 9.956C32.3852 10.7 31.4052 11.676 29.9492 12.884Z" fill="black"/>
</svg>
