<svg width="69" height="70" viewBox="0 0 69 70" fill="none" xmlns="http://www.w3.org/2000/svg">
<circle cx="34.2959" cy="34.9279" r="15.303" stroke="black" stroke-width="0.423515"/>
<path d="M33.009 26.5662C33.009 26.1655 33.1483 25.8258 33.4271 25.5471C33.7232 25.2684 34.0629 25.129 34.4461 25.129C34.8294 25.129 35.1604 25.2684 35.4391 25.5471C35.7352 25.8258 35.8833 26.1655 35.8833 26.5662C35.8833 26.9669 35.7352 27.3065 35.4391 27.5853C35.1604 27.864 34.8294 28.0033 34.4461 28.0033C34.0629 28.0033 33.7232 27.864 33.4271 27.5853C33.1483 27.3065 33.009 26.9669 33.009 26.5662ZM35.4391 44.3086C35.1604 44.5873 34.8294 44.7267 34.4461 44.7267C34.0629 44.7267 33.7232 44.5873 33.4271 44.3086C33.1483 44.0299 33.009 43.6902 33.009 43.2895V32.5761C33.009 32.1755 33.1483 31.8358 33.4271 31.5571C33.7232 31.2783 34.0629 31.139 34.4461 31.139C34.8294 31.139 35.1604 31.2783 35.4391 31.5571C35.7352 31.8358 35.8833 32.1755 35.8833 32.5761V43.2895C35.8833 43.6902 35.7352 44.0299 35.4391 44.3086Z" fill="black"/>
<path fill-rule="evenodd" clip-rule="evenodd" d="M35.4391 25.5471C35.1604 25.2684 34.8294 25.129 34.4461 25.129C34.0629 25.129 33.7232 25.2684 33.4271 25.5471C33.1483 25.8258 33.009 26.1655 33.009 26.5662C33.009 26.9669 33.1483 27.3065 33.4271 27.5853C33.7232 27.864 34.0629 28.0033 34.4461 28.0033C34.8294 28.0033 35.1604 27.864 35.4391 27.5853C35.7352 27.3065 35.8833 26.9669 35.8833 26.5662C35.8833 26.1655 35.7352 25.8258 35.4391 25.5471ZM33.7114 27.2922C33.9356 27.5015 34.1755 27.5951 34.4461 27.5951C34.7177 27.5951 34.9458 27.5012 35.1504 27.2966L35.1548 27.2922L35.1593 27.288C35.3748 27.0851 35.475 26.8524 35.475 26.5662C35.475 26.28 35.3748 26.0473 35.1593 25.8444L35.1548 25.8402L35.1504 25.8358C34.9458 25.6312 34.7177 25.5373 34.4461 25.5373C34.1755 25.5373 33.9356 25.6309 33.7114 25.8401C33.5136 26.0399 33.4173 26.2739 33.4173 26.5662C33.4173 26.8584 33.5136 27.0924 33.7114 27.2922ZM35.1548 44.0155L35.1593 44.0113C35.3748 43.8084 35.475 43.5757 35.475 43.2895V32.5761C35.475 32.2899 35.3748 32.0572 35.1593 31.8544L35.1548 31.8501L35.1504 31.8458C34.9458 31.6412 34.7177 31.5473 34.4461 31.5473C34.1755 31.5473 33.9356 31.6409 33.7114 31.8501C33.5136 32.0499 33.4173 32.2839 33.4173 32.5761V43.2895C33.4173 43.5818 33.5136 43.8158 33.7115 44.0156C33.9356 44.2248 34.1755 44.3184 34.4461 44.3184C34.7177 44.3184 34.9458 44.2245 35.1504 44.0199L35.1548 44.0155ZM33.4271 31.5571C33.7232 31.2783 34.0629 31.139 34.4461 31.139C34.8294 31.139 35.1604 31.2783 35.4391 31.5571C35.7352 31.8358 35.8833 32.1755 35.8833 32.5761V43.2895C35.8833 43.6902 35.7352 44.0299 35.4391 44.3086C35.1604 44.5873 34.8294 44.7267 34.4461 44.7267C34.0629 44.7267 33.7232 44.5873 33.4271 44.3086C33.1483 44.0299 33.009 43.6902 33.009 43.2895V32.5761C33.009 32.1755 33.1483 31.8358 33.4271 31.5571Z" fill="black"/>
</svg>
