<svg width="60" height="22" viewBox="0 0 60 22" fill="none" xmlns="http://www.w3.org/2000/svg">
<path d="M19.6492 11C19.6492 15.7786 15.7663 19.6537 10.9749 19.6537C6.18354 19.6537 2.30069 15.7786 2.30069 11C2.30069 6.2214 6.18354 2.34624 10.9749 2.34624C15.7663 2.34624 19.6492 6.2214 19.6492 11Z" fill="#FF0000" stroke="black" stroke-width="0.692483"/>
<path d="M15.0387 11.3C15.0387 13.5933 13.1752 15.4537 10.8747 15.4537C8.57425 15.4537 6.71071 13.5933 6.71071 11.3C6.71071 9.00667 8.57425 7.14623 10.8747 7.14623C13.1752 7.14623 15.0387 9.00667 15.0387 11.3Z" fill="black" stroke="black" stroke-width="0.692483"/>
<line x1="17.9474" y1="11.1867" x2="21.9565" y2="11.1867" stroke="black" stroke-width="0.692483"/>
<line x1="11.1207" y1="18" x2="11.1207" y2="22" stroke="black" stroke-width="0.692483"/>
<line y1="11.1867" x2="4.00911" y2="11.1867" stroke="black" stroke-width="0.692483"/>
<line x1="11.1207" x2="11.1207" y2="4" stroke="black" stroke-width="0.692483"/>
<ellipse cx="11.0224" cy="11.5553" rx="0.601367" ry="0.599999" fill="white"/>
<path d="M27.304 10.368V13.26C27.304 13.332 27.34 13.368 27.412 13.368H28.024C29.72 13.368 30.568 12.792 30.568 11.64C30.568 11.152 30.384 10.788 30.016 10.548C29.656 10.3 29.072 10.176 28.264 10.176C27.96 10.176 27.672 10.2 27.4 10.248C27.336 10.264 27.304 10.304 27.304 10.368ZM27.112 17.808C26.984 17.936 26.828 18 26.644 18C26.46 18 26.304 17.936 26.176 17.808C26.048 17.68 25.984 17.524 25.984 17.34V9.984C25.984 9.784 26.048 9.612 26.176 9.468C26.304 9.316 26.468 9.232 26.668 9.216C27.26 9.152 27.832 9.12 28.384 9.12C29.536 9.12 30.404 9.332 30.988 9.756C31.572 10.18 31.864 10.768 31.864 11.52C31.864 12.128 31.708 12.648 31.396 13.08C31.092 13.504 30.672 13.8 30.136 13.968C30.128 13.968 30.124 13.972 30.124 13.98C30.124 13.996 30.128 14.004 30.136 14.004C30.48 14.236 30.796 14.708 31.084 15.42L31.852 17.364C31.916 17.516 31.9 17.66 31.804 17.796C31.708 17.932 31.58 18 31.42 18C31.212 18 31.024 17.944 30.856 17.832C30.688 17.712 30.568 17.556 30.496 17.364L29.74 15.42C29.572 14.988 29.384 14.712 29.176 14.592C28.976 14.464 28.592 14.4 28.024 14.4H27.412C27.34 14.4 27.304 14.436 27.304 14.508V17.34C27.304 17.524 27.24 17.68 27.112 17.808ZM33.6785 9.66C33.6785 9.476 33.7425 9.32 33.8705 9.192C34.0065 9.064 34.1625 9 34.3385 9C34.5145 9 34.6665 9.064 34.7945 9.192C34.9305 9.32 34.9985 9.476 34.9985 9.66C34.9985 9.844 34.9305 10 34.7945 10.128C34.6665 10.256 34.5145 10.32 34.3385 10.32C34.1625 10.32 34.0065 10.256 33.8705 10.128C33.7425 10 33.6785 9.844 33.6785 9.66ZM34.7945 17.808C34.6665 17.936 34.5145 18 34.3385 18C34.1625 18 34.0065 17.936 33.8705 17.808C33.7425 17.68 33.6785 17.524 33.6785 17.34V12.42C33.6785 12.236 33.7425 12.08 33.8705 11.952C34.0065 11.824 34.1625 11.76 34.3385 11.76C34.5145 11.76 34.6665 11.824 34.7945 11.952C34.9305 12.08 34.9985 12.236 34.9985 12.42V17.34C34.9985 17.524 34.9305 17.68 34.7945 17.808ZM39.1892 15.36C38.3732 15.16 37.7972 14.908 37.4612 14.604C37.1332 14.292 36.9692 13.904 36.9692 13.44C36.9692 12.88 37.1692 12.44 37.5692 12.12C37.9772 11.8 38.5772 11.64 39.3692 11.64C39.8812 11.64 40.3972 11.696 40.9172 11.808C41.0612 11.84 41.1772 11.92 41.2652 12.048C41.3612 12.168 41.4092 12.304 41.4092 12.456C41.4092 12.584 41.3572 12.684 41.2532 12.756C41.1492 12.828 41.0372 12.844 40.9172 12.804C40.4132 12.668 39.9372 12.6 39.4892 12.6C38.6492 12.6 38.2292 12.84 38.2292 13.32C38.2292 13.56 38.3092 13.756 38.4692 13.908C38.6292 14.06 38.9092 14.184 39.3092 14.28C40.2292 14.496 40.8492 14.756 41.1692 15.06C41.4892 15.356 41.6492 15.796 41.6492 16.38C41.6492 16.924 41.4372 17.352 41.0132 17.664C40.5972 17.968 39.9892 18.12 39.1892 18.12C38.6692 18.12 38.1492 18.052 37.6292 17.916C37.4852 17.876 37.3692 17.796 37.2812 17.676C37.1932 17.548 37.1492 17.408 37.1492 17.256C37.1492 17.136 37.1972 17.04 37.2932 16.968C37.3972 16.896 37.5052 16.88 37.6172 16.92C38.1132 17.08 38.5972 17.16 39.0692 17.16C39.9492 17.16 40.3892 16.9 40.3892 16.38C40.3892 16.132 40.3012 15.932 40.1252 15.78C39.9492 15.62 39.6372 15.48 39.1892 15.36ZM44.324 17.82C44.204 17.94 44.056 18 43.88 18C43.704 18 43.556 17.94 43.436 17.82C43.316 17.7 43.256 17.552 43.256 17.376V9.624C43.256 9.448 43.316 9.3 43.436 9.18C43.556 9.06 43.704 9 43.88 9C44.056 9 44.204 9.06 44.324 9.18C44.452 9.3 44.516 9.448 44.516 9.624V14.508C44.516 14.516 44.52 14.52 44.528 14.52L44.552 14.508L46.688 12.252C47 11.924 47.384 11.76 47.84 11.76H47.972C48.1 11.76 48.188 11.82 48.236 11.94C48.292 12.06 48.276 12.164 48.188 12.252L45.848 14.688C45.808 14.728 45.808 14.776 45.848 14.832L48.2 17.496C48.288 17.592 48.304 17.7 48.248 17.82C48.2 17.94 48.108 18 47.972 18H47.84C47.392 18 47.016 17.828 46.712 17.484L44.552 15.012C44.544 15.004 44.536 15 44.528 15C44.52 15 44.516 15.004 44.516 15.012V17.376C44.516 17.552 44.452 17.7 44.324 17.82ZM54.9492 16.884C54.9412 16.892 54.9372 16.9 54.9372 16.908C54.9372 16.916 54.9412 16.92 54.9492 16.92H58.1172C58.2692 16.92 58.3972 16.972 58.5012 17.076C58.6052 17.18 58.6572 17.308 58.6572 17.46C58.6572 17.612 58.6052 17.74 58.5012 17.844C58.3972 17.948 58.2692 18 58.1172 18H53.6772C53.5252 18 53.3972 17.948 53.2932 17.844C53.1892 17.74 53.1372 17.612 53.1372 17.46C53.1372 17.108 53.2772 16.816 53.5572 16.584C55.0132 15.408 55.9972 14.476 56.5092 13.788C57.0292 13.092 57.2892 12.416 57.2892 11.76C57.2892 10.736 56.7452 10.224 55.6572 10.224C55.1212 10.224 54.5292 10.364 53.8812 10.644C53.7452 10.7 53.6172 10.692 53.4972 10.62C53.3772 10.548 53.3172 10.44 53.3172 10.296C53.3172 10.096 53.3692 9.916 53.4732 9.756C53.5772 9.596 53.7212 9.488 53.9052 9.432C54.5532 9.224 55.1972 9.12 55.8372 9.12C56.7332 9.12 57.4252 9.344 57.9132 9.792C58.4092 10.232 58.6572 10.848 58.6572 11.64C58.6572 12.432 58.4012 13.204 57.8892 13.956C57.3852 14.7 56.4052 15.676 54.9492 16.884Z" fill="black"/>
</svg>
