<svg width="173" height="76" viewBox="0 0 173 76" fill="none" xmlns="http://www.w3.org/2000/svg">
<path d="M67.116 20.7401C67.116 29.7033 59.8329 36.972 50.8457 36.972C41.8584 36.972 34.5753 29.7033 34.5753 20.7401C34.5753 11.7769 41.8584 4.50821 50.8457 4.50821C59.8329 4.50821 67.116 11.7769 67.116 20.7401Z" fill="#FF0000" stroke="black" stroke-width="1.29889"/>
<path d="M58.4681 21.3028C58.4681 25.6044 54.9726 29.094 50.6577 29.094C46.3427 29.094 42.8472 25.6044 42.8472 21.3028C42.8472 17.0012 46.3427 13.5116 50.6577 13.5116C54.9726 13.5116 58.4681 17.0012 58.4681 21.3028Z" fill="black" stroke="black" stroke-width="1.29889"/>
<line x1="63.9239" y1="21.0902" x2="71.4438" y2="21.0902" stroke="black" stroke-width="1.29889"/>
<line x1="51.1191" y1="33.8701" x2="51.1191" y2="41.3729" stroke="black" stroke-width="1.29889"/>
<line x1="30.2599" y1="21.0902" x2="37.7798" y2="21.0902" stroke="black" stroke-width="1.29889"/>
<line x1="51.1191" y1="0.107361" x2="51.1191" y2="7.61018" stroke="black" stroke-width="1.29889"/>
<ellipse cx="50.9347" cy="21.7816" rx="1.12799" ry="1.12542" fill="white"/>
<path d="M81.4742 18.2948V23.7193C81.4742 23.8544 81.5417 23.9219 81.6767 23.9219H82.8247C86.0059 23.9219 87.5965 22.8415 87.5965 20.6807C87.5965 19.7653 87.2513 19.0826 86.5611 18.6324C85.8858 18.1672 84.7904 17.9346 83.2748 17.9346C82.7046 17.9346 82.1644 17.9797 81.6542 18.0697C81.5342 18.0997 81.4742 18.1747 81.4742 18.2948ZM81.114 32.25C80.8739 32.4901 80.5813 32.6102 80.2362 32.6102C79.8911 32.6102 79.5985 32.4901 79.3584 32.25C79.1183 32.0099 78.9982 31.7173 78.9982 31.3722V17.5745C78.9982 17.1994 79.1183 16.8767 79.3584 16.6066C79.5985 16.3215 79.9061 16.164 80.2812 16.134C81.3916 16.0139 82.4645 15.9539 83.4999 15.9539C85.6607 15.9539 87.2889 16.3515 88.3843 17.1468C89.4797 17.9421 90.0274 19.0451 90.0274 20.4556C90.0274 21.596 89.7348 22.5714 89.1496 23.3817C88.5793 24.177 87.7915 24.7322 86.7862 25.0473C86.7712 25.0473 86.7637 25.0548 86.7637 25.0698C86.7637 25.0998 86.7712 25.1148 86.7862 25.1148C87.4314 25.55 88.0241 26.4353 88.5643 27.7708L90.0049 31.4172C90.1249 31.7023 90.0949 31.9724 89.9148 32.2275C89.7348 32.4826 89.4947 32.6102 89.1946 32.6102C88.8044 32.6102 88.4518 32.5051 88.1367 32.295C87.8216 32.07 87.5965 31.7774 87.4614 31.4172L86.0434 27.7708C85.7283 26.9605 85.3756 26.4428 84.9855 26.2178C84.6104 25.9777 83.8901 25.8576 82.8247 25.8576H81.6767C81.5417 25.8576 81.4742 25.9252 81.4742 26.0602V31.3722C81.4742 31.7173 81.3541 32.0099 81.114 32.25ZM93.4309 16.9668C93.4309 16.6216 93.551 16.329 93.7911 16.0889C94.0461 15.8489 94.3388 15.7288 94.6689 15.7288C94.999 15.7288 95.2841 15.8489 95.5242 16.0889C95.7793 16.329 95.9068 16.6216 95.9068 16.9668C95.9068 17.3119 95.7793 17.6045 95.5242 17.8446C95.2841 18.0847 94.999 18.2047 94.6689 18.2047C94.3388 18.2047 94.0461 18.0847 93.7911 17.8446C93.551 17.6045 93.4309 17.3119 93.4309 16.9668ZM95.5242 32.25C95.2841 32.4901 94.999 32.6102 94.6689 32.6102C94.3388 32.6102 94.0461 32.4901 93.7911 32.25C93.551 32.0099 93.4309 31.7173 93.4309 31.3722V22.1437C93.4309 21.7986 93.551 21.506 93.7911 21.2659C94.0461 21.0258 94.3388 20.9058 94.6689 20.9058C94.999 20.9058 95.2841 21.0258 95.5242 21.2659C95.7793 21.506 95.9068 21.7986 95.9068 22.1437V31.3722C95.9068 31.7173 95.7793 32.0099 95.5242 32.25ZM103.767 27.6583C102.237 27.2832 101.156 26.8105 100.526 26.2403C99.9108 25.655 99.6032 24.9273 99.6032 24.0569C99.6032 23.0066 99.9783 22.1812 100.729 21.581C101.494 20.9808 102.619 20.6807 104.105 20.6807C105.065 20.6807 106.033 20.7857 107.008 20.9958C107.279 21.0558 107.496 21.2059 107.661 21.446C107.841 21.671 107.931 21.9261 107.931 22.2113C107.931 22.4513 107.834 22.6389 107.639 22.774C107.444 22.909 107.234 22.939 107.008 22.864C106.063 22.6089 105.17 22.4814 104.33 22.4814C102.754 22.4814 101.967 22.9315 101.967 23.8319C101.967 24.282 102.117 24.6497 102.417 24.9348C102.717 25.2199 103.242 25.4525 103.992 25.6325C105.718 26.0377 106.881 26.5254 107.481 27.0956C108.081 27.6508 108.381 28.4761 108.381 29.5715C108.381 30.5919 107.984 31.3947 107.189 31.9799C106.408 32.5501 105.268 32.8353 103.767 32.8353C102.792 32.8353 101.816 32.7077 100.841 32.4526C100.571 32.3776 100.353 32.2275 100.188 32.0024C100.023 31.7623 99.9408 31.4998 99.9408 31.2146C99.9408 30.9896 100.031 30.8095 100.211 30.6744C100.406 30.5394 100.609 30.5094 100.819 30.5844C101.749 30.8845 102.657 31.0346 103.542 31.0346C105.193 31.0346 106.018 30.5469 106.018 29.5715C106.018 29.1063 105.853 28.7312 105.523 28.4461C105.193 28.146 104.608 27.8834 103.767 27.6583ZM113.399 32.2725C113.174 32.4976 112.896 32.6102 112.566 32.6102C112.236 32.6102 111.958 32.4976 111.733 32.2725C111.508 32.0475 111.395 31.7699 111.395 31.4397V16.8993C111.395 16.5691 111.508 16.2915 111.733 16.0664C111.958 15.8414 112.236 15.7288 112.566 15.7288C112.896 15.7288 113.174 15.8414 113.399 16.0664C113.639 16.2915 113.759 16.5691 113.759 16.8993V26.0602C113.759 26.0752 113.766 26.0827 113.781 26.0827L113.826 26.0602L117.833 21.8286C118.418 21.2134 119.138 20.9058 119.994 20.9058H120.241C120.481 20.9058 120.646 21.0183 120.737 21.2434C120.842 21.4685 120.812 21.6635 120.646 21.8286L116.257 26.3978C116.182 26.4729 116.182 26.5629 116.257 26.6679L120.669 31.6648C120.834 31.8449 120.864 32.0475 120.759 32.2725C120.669 32.4976 120.496 32.6102 120.241 32.6102H119.994C119.153 32.6102 118.448 32.2875 117.878 31.6423L113.826 27.0056C113.811 26.9906 113.796 26.983 113.781 26.983C113.766 26.983 113.759 26.9906 113.759 27.0056V31.4397C113.759 31.7699 113.639 32.0475 113.399 32.2725ZM133.328 30.5169C133.313 30.5319 133.306 30.5469 133.306 30.5619C133.306 30.5769 133.313 30.5844 133.328 30.5844H139.271C139.556 30.5844 139.796 30.6819 139.991 30.877C140.186 31.0721 140.284 31.3122 140.284 31.5973C140.284 31.8824 140.186 32.1225 139.991 32.3176C139.796 32.5126 139.556 32.6102 139.271 32.6102H130.943C130.657 32.6102 130.417 32.5126 130.222 32.3176C130.027 32.1225 129.93 31.8824 129.93 31.5973C129.93 30.937 130.192 30.3893 130.717 29.9542C133.448 27.7483 135.294 26.0002 136.255 24.7097C137.23 23.4042 137.718 22.1362 137.718 20.9058C137.718 18.985 136.697 18.0247 134.656 18.0247C133.651 18.0247 132.541 18.2873 131.325 18.8125C131.07 18.9175 130.83 18.9025 130.605 18.7675C130.38 18.6324 130.267 18.4298 130.267 18.1597C130.267 17.7846 130.365 17.447 130.56 17.1468C130.755 16.8467 131.025 16.6442 131.37 16.5391C132.586 16.149 133.794 15.9539 134.994 15.9539C136.675 15.9539 137.973 16.3741 138.888 17.2144C139.818 18.0397 140.284 19.1951 140.284 20.6807C140.284 22.1662 139.803 23.6143 138.843 25.0248C137.898 26.4203 136.059 28.251 133.328 30.5169Z" fill="black"/>
<g filter="url(#filter0_d_88_163)">
<path d="M8.21471 52.3736L6.61286 57.258C6.60411 57.2842 6.60848 57.3105 6.62599 57.3367C6.6435 57.3543 6.66538 57.363 6.69164 57.363H9.77718C9.80344 57.363 9.82094 57.3543 9.8297 57.3367C9.8472 57.3105 9.85596 57.2842 9.85596 57.258L8.2541 52.3736C8.2541 52.3649 8.24973 52.3605 8.24097 52.3605C8.22347 52.3605 8.21471 52.3649 8.21471 52.3736ZM4.84032 61C4.70902 61 4.60398 60.9475 4.5252 60.8424C4.44642 60.7286 4.42891 60.6105 4.47268 60.4879L7.46631 51.9666C7.52758 51.8003 7.62824 51.669 7.76829 51.5727C7.9171 51.4677 8.07904 51.4151 8.2541 51.4151C8.42917 51.4151 8.58673 51.4677 8.72678 51.5727C8.87559 51.669 8.98063 51.8003 9.0419 51.9666L12.0224 60.4748C12.0662 60.6061 12.0487 60.7286 11.9699 60.8424C11.8911 60.9475 11.7861 61 11.6548 61C11.4797 61 11.3221 60.9519 11.1821 60.8556C11.0508 60.7505 10.9589 60.6192 10.9064 60.4617L10.2105 58.3084C10.1842 58.2383 10.1317 58.2033 10.0529 58.2033H6.41591C6.34588 58.2033 6.29774 58.2383 6.27148 58.3084L5.54933 60.4879C5.49681 60.6455 5.4049 60.7724 5.2736 60.8687C5.15106 60.9562 5.00663 61 4.84032 61ZM19.0758 57.9407C18.2268 57.7394 17.6184 57.4812 17.2508 57.1661C16.8919 56.8422 16.7125 56.4264 16.7125 55.9187C16.7125 55.341 16.9269 54.8858 17.3558 54.5532C17.7935 54.2118 18.415 54.0411 19.2203 54.0411C19.8242 54.0411 20.4239 54.1199 21.0191 54.2775C21.2904 54.3475 21.4261 54.5269 21.4261 54.8158C21.4261 54.9208 21.3867 54.9996 21.3079 55.0521C21.2292 55.1047 21.1372 55.1178 21.0322 55.0915C20.4545 54.9165 19.8768 54.8289 19.2991 54.8289C18.2487 54.8289 17.7235 55.1659 17.7235 55.8399C17.7235 56.1375 17.8285 56.387 18.0386 56.5883C18.2487 56.7809 18.6294 56.9385 19.1809 57.061C20.1262 57.2711 20.774 57.5381 21.1241 57.8619C21.483 58.1858 21.6624 58.6497 21.6624 59.2537C21.6624 59.8402 21.4349 60.2997 20.9797 60.6324C20.5333 60.965 19.8987 61.1313 19.0758 61.1313C18.4369 61.1313 17.8285 61.035 17.2508 60.8424C16.9794 60.7549 16.8438 60.5667 16.8438 60.2779C16.8438 60.1816 16.8875 60.1072 16.9751 60.0546C17.0626 59.9934 17.1545 59.9802 17.2508 60.0153C17.8197 60.2341 18.4018 60.3435 18.9971 60.3435C20.1 60.3435 20.6514 59.9802 20.6514 59.2537C20.6514 58.9386 20.5376 58.676 20.3101 58.4659C20.0912 58.2558 19.6798 58.0808 19.0758 57.9407ZM24.8539 60.8424C24.7577 60.9475 24.6351 61 24.4863 61C24.3375 61 24.2106 60.9475 24.1055 60.8424C24.0092 60.7374 23.9611 60.6149 23.9611 60.4748V54.6976C23.9611 54.5576 24.0092 54.435 24.1055 54.33C24.2106 54.2249 24.3375 54.1724 24.4863 54.1724C24.6351 54.1724 24.7577 54.2249 24.8539 54.33C24.959 54.435 25.0115 54.5576 25.0115 54.6976V60.4748C25.0115 60.6149 24.959 60.7374 24.8539 60.8424ZM24.8539 52.413C24.7577 52.5093 24.6351 52.5574 24.4863 52.5574C24.3375 52.5574 24.2106 52.5093 24.1055 52.413C24.0092 52.308 23.9611 52.1811 23.9611 52.0322V51.6777C23.9611 51.5377 24.0092 51.4151 24.1055 51.3101C24.2106 51.2051 24.3375 51.1525 24.4863 51.1525C24.6351 51.1525 24.7577 51.2051 24.8539 51.3101C24.959 51.4151 25.0115 51.5377 25.0115 51.6777V52.0322C25.0115 52.1811 24.959 52.308 24.8539 52.413ZM28.3671 60.8556C28.2708 60.9519 28.1527 61 28.0126 61C27.8726 61 27.75 60.9519 27.645 60.8556C27.5487 60.7593 27.5005 60.6411 27.5005 60.5011V54.6582C27.5005 54.5269 27.5487 54.4131 27.645 54.3169C27.7413 54.2206 27.8551 54.1724 27.9864 54.1724C28.1177 54.1724 28.2314 54.2206 28.3277 54.3169C28.424 54.4131 28.4722 54.5269 28.4722 54.6582L28.4853 55.0915C28.4853 55.1003 28.4897 55.1047 28.4984 55.1047C28.5159 55.1047 28.5247 55.0959 28.5247 55.0784C29.0236 54.3869 29.6188 54.0411 30.3104 54.0411C30.7305 54.0411 31.0675 54.133 31.3214 54.3169C31.584 54.5007 31.7984 54.807 31.9647 55.236C31.9647 55.2535 31.9691 55.2622 31.9779 55.2622C31.9954 55.2622 32.0041 55.2535 32.0041 55.236C32.4943 54.4394 33.1333 54.0411 33.9211 54.0411C34.6214 54.0411 35.1247 54.2425 35.431 54.6451C35.7462 55.0478 35.9037 55.7218 35.9037 56.6671V60.5011C35.9037 60.6411 35.8556 60.7593 35.7593 60.8556C35.6718 60.9519 35.558 61 35.4179 61C35.2779 61 35.1597 60.9519 35.0634 60.8556C34.9671 60.7593 34.919 60.6411 34.919 60.5011V56.9297C34.919 56.1157 34.8227 55.5642 34.6301 55.2753C34.4463 54.9777 34.118 54.8289 33.6454 54.8289C33.3215 54.8289 33.002 55.004 32.6869 55.3541C32.3718 55.6955 32.2142 56.05 32.2142 56.4176V60.5011C32.2142 60.6411 32.1661 60.7593 32.0698 60.8556C31.9735 60.9519 31.8553 61 31.7153 61C31.5752 61 31.457 60.9519 31.3608 60.8556C31.2645 60.7593 31.2163 60.6411 31.2163 60.5011V56.9297C31.2163 56.1157 31.12 55.5642 30.9275 55.2753C30.7436 54.9777 30.4198 54.8289 29.9558 54.8289C29.632 54.8289 29.3081 55.004 28.9842 55.3541C28.6691 55.6955 28.5116 56.05 28.5116 56.4176V60.5011C28.5116 60.6411 28.4634 60.7593 28.3671 60.8556ZM38.8206 56.654V58.5184C38.8206 59.0174 39.0176 59.4463 39.4115 59.8052C39.8054 60.1641 40.2649 60.3435 40.7901 60.3435C41.4116 60.3435 41.893 60.1115 42.2344 59.6476C42.5845 59.1749 42.7596 58.4878 42.7596 57.5862C42.7596 55.748 42.1031 54.8289 40.7901 54.8289C40.2562 54.8289 39.7922 55.0127 39.3983 55.3804C39.0132 55.7393 38.8206 56.1638 38.8206 56.654ZM38.6762 63.7442C38.5799 63.8404 38.4617 63.8886 38.3217 63.8886C38.1816 63.8886 38.0591 63.8404 37.954 63.7442C37.8577 63.6479 37.8096 63.5297 37.8096 63.3896V54.6451C37.8096 54.5138 37.8534 54.4044 37.9409 54.3169C38.0372 54.2206 38.151 54.1724 38.2823 54.1724C38.4136 54.1724 38.5274 54.2206 38.6237 54.3169C38.7199 54.4044 38.7681 54.5138 38.7681 54.6451L38.7812 55.144C38.7812 55.1528 38.7856 55.1572 38.7944 55.1572L38.8206 55.1309C39.3983 54.4044 40.1292 54.0411 41.0133 54.0411C41.8624 54.0411 42.532 54.3519 43.0222 54.9734C43.5211 55.5861 43.7706 56.457 43.7706 57.5862C43.7706 58.6804 43.5124 59.547 42.9959 60.1859C42.4882 60.8162 41.8274 61.1313 41.0133 61.1313C40.1205 61.1313 39.4027 60.7943 38.86 60.1203C38.8512 60.1115 38.8425 60.1072 38.8337 60.1072C38.825 60.1072 38.8206 60.1115 38.8206 60.1203V63.3896C38.8206 63.5297 38.7725 63.6479 38.6762 63.7442ZM46.7671 60.8424C46.6708 60.9475 46.5483 61 46.3995 61C46.2507 61 46.1237 60.9475 46.0187 60.8424C45.9224 60.7374 45.8743 60.6149 45.8743 60.4748V51.6777C45.8743 51.5377 45.9224 51.4151 46.0187 51.3101C46.1237 51.2051 46.2507 51.1525 46.3995 51.1525C46.5483 51.1525 46.6708 51.2051 46.7671 51.3101C46.8721 51.4151 46.9247 51.5377 46.9247 51.6777V60.4748C46.9247 60.6149 46.8721 60.7374 46.7671 60.8424ZM51.974 54.8027C50.7573 54.8027 50.0921 55.5248 49.9783 56.9691C49.9783 57.0391 50.0177 57.0741 50.0965 57.0741H53.6284C53.6984 57.0741 53.7335 57.0391 53.7335 56.9691C53.6809 55.5248 53.0945 54.8027 51.974 54.8027ZM52.2498 61.1313C51.1731 61.1313 50.3547 60.8381 49.7945 60.2516C49.2343 59.6564 48.9542 58.7679 48.9542 57.5862C48.9542 56.3695 49.2211 55.4767 49.7551 54.9077C50.2978 54.33 51.0374 54.0411 51.974 54.0411C53.6984 54.0411 54.6132 55.0609 54.7182 57.1004C54.727 57.3105 54.6526 57.4899 54.495 57.6387C54.3462 57.7788 54.1667 57.8488 53.9567 57.8488H50.0702C50.0002 57.8488 49.9652 57.8882 49.9652 57.967C50.0439 59.5688 50.8361 60.3698 52.3417 60.3698C52.8406 60.3698 53.3527 60.2779 53.8779 60.094C53.9742 60.059 54.0661 60.0722 54.1536 60.1334C54.2412 60.1859 54.2849 60.2647 54.2849 60.3698C54.2849 60.6674 54.1492 60.8512 53.8779 60.9212C53.3177 61.0613 52.775 61.1313 52.2498 61.1313ZM61.2562 60.8424C61.1599 60.9475 61.0374 61 60.8886 61C60.7398 61 60.6128 60.9475 60.5078 60.8424C60.4115 60.7374 60.3634 60.6149 60.3634 60.4748V51.6777C60.3634 51.5377 60.4115 51.4151 60.5078 51.3101C60.6128 51.2051 60.7398 51.1525 60.8886 51.1525C61.0374 51.1525 61.1599 51.2051 61.2562 51.3101C61.3612 51.4151 61.4138 51.5377 61.4138 51.6777V60.4748C61.4138 60.6149 61.3612 60.7374 61.2562 60.8424ZM68.669 57.5862C68.669 55.748 67.9687 54.8289 66.5682 54.8289C65.1677 54.8289 64.4674 55.748 64.4674 57.5862C64.4674 59.4244 65.1677 60.3435 66.5682 60.3435C67.9687 60.3435 68.669 59.4244 68.669 57.5862ZM68.8659 60.1991C68.3145 60.8206 67.5486 61.1313 66.5682 61.1313C65.5878 61.1313 64.8219 60.8206 64.2704 60.1991C63.719 59.5776 63.4433 58.7066 63.4433 57.5862C63.4433 56.4658 63.719 55.5948 64.2704 54.9734C64.8219 54.3519 65.5878 54.0411 66.5682 54.0411C67.5486 54.0411 68.3145 54.3519 68.8659 54.9734C69.4174 55.5948 69.6931 56.4658 69.6931 57.5862C69.6931 58.7066 69.4174 59.5776 68.8659 60.1991ZM71.1361 55.2228C71.0223 55.2228 70.926 55.1878 70.8472 55.1178C70.7772 55.039 70.7422 54.9427 70.7422 54.8289C70.7422 54.7151 70.7772 54.6232 70.8472 54.5532C70.926 54.4744 71.0223 54.435 71.1361 54.435H72.0946C72.1733 54.435 72.2127 54.3956 72.2127 54.3169V52.4393C72.2127 52.2992 72.2609 52.1811 72.3572 52.0848C72.4534 51.9885 72.5716 51.9403 72.7117 51.9403C72.8517 51.9403 72.9699 51.9885 73.0662 52.0848C73.1625 52.1811 73.2106 52.2992 73.2106 52.4393V54.3169C73.2106 54.3956 73.25 54.435 73.3288 54.435H75.2983C75.4121 54.435 75.504 54.4744 75.574 54.5532C75.6528 54.6232 75.6922 54.7151 75.6922 54.8289C75.6922 54.9427 75.6528 55.039 75.574 55.1178C75.504 55.1878 75.4121 55.2228 75.2983 55.2228H73.3288C73.25 55.2228 73.2106 55.2622 73.2106 55.341V58.8073C73.2106 59.4375 73.2938 59.8533 73.4601 60.0546C73.6264 60.2472 73.9459 60.3435 74.4186 60.3435C74.6987 60.3435 74.9306 60.3216 75.1144 60.2779C75.2107 60.2603 75.2983 60.2822 75.377 60.3435C75.4646 60.396 75.5083 60.4704 75.5083 60.5667C75.5083 60.6893 75.469 60.7987 75.3902 60.895C75.3201 60.9912 75.2282 61.0481 75.1144 61.0656C74.8869 61.1094 74.598 61.1313 74.2479 61.1313C73.4776 61.1313 72.9436 60.9737 72.646 60.6586C72.3572 60.3347 72.2127 59.7483 72.2127 58.8992V55.341C72.2127 55.2622 72.1733 55.2228 72.0946 55.2228H71.1361ZM83.3664 57.9407C82.5173 57.7394 81.909 57.4812 81.5413 57.1661C81.1825 56.8422 81.003 56.4264 81.003 55.9187C81.003 55.341 81.2175 54.8858 81.6464 54.5532C82.0841 54.2118 82.7055 54.0411 83.5108 54.0411C84.1148 54.0411 84.7144 54.1199 85.3096 54.2775C85.581 54.3475 85.7167 54.5269 85.7167 54.8158C85.7167 54.9208 85.6773 54.9996 85.5985 55.0521C85.5197 55.1047 85.4278 55.1178 85.3228 55.0915C84.7451 54.9165 84.1673 54.8289 83.5896 54.8289C82.5392 54.8289 82.014 55.1659 82.014 55.8399C82.014 56.1375 82.1191 56.387 82.3291 56.5883C82.5392 56.7809 82.92 56.9385 83.4715 57.061C84.4168 57.2711 85.0646 57.5381 85.4147 57.8619C85.7736 58.1858 85.953 58.6497 85.953 59.2537C85.953 59.8402 85.7254 60.2997 85.2703 60.6324C84.8238 60.965 84.1892 61.1313 83.3664 61.1313C82.7274 61.1313 82.1191 61.035 81.5413 60.8424C81.27 60.7549 81.1343 60.5667 81.1343 60.2779C81.1343 60.1816 81.1781 60.1072 81.2656 60.0546C81.3532 59.9934 81.4451 59.9802 81.5413 60.0153C82.1103 60.2341 82.6924 60.3435 83.2876 60.3435C84.3905 60.3435 84.942 59.9802 84.942 59.2537C84.942 58.9386 84.8282 58.676 84.6006 58.4659C84.3818 58.2558 83.9704 58.0808 83.3664 57.9407ZM89.1445 60.8424C89.0482 60.9475 88.9257 61 88.7769 61C88.6281 61 88.5011 60.9475 88.3961 60.8424C88.2998 60.7374 88.2517 60.6149 88.2517 60.4748V54.6976C88.2517 54.5576 88.2998 54.435 88.3961 54.33C88.5011 54.2249 88.6281 54.1724 88.7769 54.1724C88.9257 54.1724 89.0482 54.2249 89.1445 54.33C89.2495 54.435 89.3021 54.5576 89.3021 54.6976V60.4748C89.3021 60.6149 89.2495 60.7374 89.1445 60.8424ZM89.1445 52.413C89.0482 52.5093 88.9257 52.5574 88.7769 52.5574C88.6281 52.5574 88.5011 52.5093 88.3961 52.413C88.2998 52.308 88.2517 52.1811 88.2517 52.0322V51.6777C88.2517 51.5377 88.2998 51.4151 88.3961 51.3101C88.5011 51.2051 88.6281 51.1525 88.7769 51.1525C88.9257 51.1525 89.0482 51.2051 89.1445 51.3101C89.2495 51.4151 89.3021 51.5377 89.3021 51.6777V52.0322C89.3021 52.1811 89.2495 52.308 89.1445 52.413ZM92.0275 59.8971L95.6513 54.9996V54.9734C95.6513 54.9646 95.6469 54.9602 95.6382 54.9602H92.185C92.0712 54.9602 91.9749 54.9252 91.8962 54.8552C91.8261 54.7764 91.7911 54.6801 91.7911 54.5663C91.7911 54.4525 91.8261 54.3606 91.8962 54.2906C91.9749 54.2118 92.0712 54.1724 92.185 54.1724H96.4654C96.5792 54.1724 96.6711 54.2118 96.7411 54.2906C96.8199 54.3606 96.8593 54.4525 96.8593 54.5663C96.8593 54.8289 96.7805 55.0653 96.6229 55.2753L92.9991 60.1728V60.1991C92.9991 60.2078 93.0034 60.2122 93.0122 60.2122H96.4654C96.5792 60.2122 96.6711 60.2516 96.7411 60.3304C96.8199 60.4004 96.8593 60.4923 96.8593 60.6061C96.8593 60.7199 96.8199 60.8162 96.7411 60.895C96.6711 60.965 96.5792 61 96.4654 61H92.185C92.0712 61 91.9749 60.965 91.8962 60.895C91.8261 60.8162 91.7911 60.7199 91.7911 60.6061C91.7911 60.3435 91.8699 60.1072 92.0275 59.8971ZM101.263 54.8027C100.046 54.8027 99.3807 55.5248 99.2669 56.9691C99.2669 57.0391 99.3063 57.0741 99.385 57.0741H102.917C102.987 57.0741 103.022 57.0391 103.022 56.9691C102.97 55.5248 102.383 54.8027 101.263 54.8027ZM101.538 61.1313C100.462 61.1313 99.6433 60.8381 99.0831 60.2516C98.5228 59.6564 98.2427 58.7679 98.2427 57.5862C98.2427 56.3695 98.5097 55.4767 99.0437 54.9077C99.5864 54.33 100.326 54.0411 101.263 54.0411C102.987 54.0411 103.902 55.0609 104.007 57.1004C104.016 57.3105 103.941 57.4899 103.784 57.6387C103.635 57.7788 103.455 57.8488 103.245 57.8488H99.3588C99.2888 57.8488 99.2537 57.8882 99.2537 57.967C99.3325 59.5688 100.125 60.3698 101.63 60.3698C102.129 60.3698 102.641 60.2779 103.166 60.094C103.263 60.059 103.355 60.0722 103.442 60.1334C103.53 60.1859 103.573 60.2647 103.573 60.3698C103.573 60.6674 103.438 60.8512 103.166 60.9212C102.606 61.0613 102.064 61.1313 101.538 61.1313ZM111.884 61.1313C110.851 61.1313 110.055 60.8337 109.494 60.2385C108.943 59.6345 108.667 58.7504 108.667 57.5862C108.667 56.4308 108.934 55.5511 109.468 54.9471C110.011 54.3431 110.772 54.0411 111.753 54.0411C112.208 54.0411 112.689 54.0893 113.197 54.1856C113.32 54.2118 113.42 54.2775 113.499 54.3825C113.587 54.4788 113.63 54.5926 113.63 54.7239C113.63 54.8289 113.582 54.9121 113.486 54.9734C113.398 55.0346 113.302 55.0521 113.197 55.0259C112.751 54.9121 112.291 54.8552 111.818 54.8552C110.418 54.8552 109.718 55.7655 109.718 57.5862C109.718 58.5316 109.901 59.2231 110.269 59.6607C110.637 60.0984 111.197 60.3172 111.95 60.3172C112.44 60.3172 112.886 60.2516 113.289 60.1203C113.385 60.0853 113.477 60.0984 113.565 60.1597C113.652 60.221 113.696 60.3041 113.696 60.4092C113.696 60.5405 113.657 60.6586 113.578 60.7637C113.499 60.8687 113.394 60.9387 113.263 60.9737C112.851 61.0788 112.392 61.1313 111.884 61.1313ZM118.911 57.3893C118.044 57.3893 117.388 57.5293 116.941 57.8094C116.504 58.0895 116.285 58.4834 116.285 58.9911C116.285 59.385 116.394 59.7045 116.613 59.9496C116.841 60.1859 117.138 60.3041 117.506 60.3041C118.136 60.3041 118.657 60.094 119.068 59.6739C119.488 59.2537 119.698 58.6979 119.698 58.0064V57.5074C119.698 57.4287 119.659 57.3893 119.58 57.3893H118.911ZM117.296 61.1313C116.7 61.1313 116.215 60.9431 115.838 60.5667C115.462 60.1903 115.274 59.6914 115.274 59.0699C115.274 58.3434 115.563 57.7613 116.14 57.3236C116.718 56.886 117.641 56.6671 118.911 56.6671H119.58C119.659 56.6671 119.698 56.6321 119.698 56.5621V56.3126C119.698 55.7787 119.576 55.4066 119.331 55.1966C119.086 54.9777 118.652 54.8683 118.031 54.8683C117.427 54.8683 116.775 54.9821 116.075 55.2097C115.97 55.2447 115.873 55.2316 115.786 55.1703C115.698 55.109 115.654 55.0215 115.654 54.9077C115.654 54.6013 115.799 54.4044 116.088 54.3169C116.736 54.133 117.383 54.0411 118.031 54.0411C119.038 54.0411 119.734 54.2249 120.119 54.5926C120.513 54.9602 120.71 55.6211 120.71 56.5752V60.5273C120.71 60.6586 120.661 60.7724 120.565 60.8687C120.478 60.9562 120.368 61 120.237 61C120.106 61 119.992 60.9562 119.895 60.8687C119.799 60.7724 119.751 60.6586 119.751 60.5273L119.738 59.8446C119.738 59.8358 119.734 59.8314 119.725 59.8314C119.707 59.8314 119.698 59.8402 119.698 59.8577C119.182 60.7068 118.381 61.1313 117.296 61.1313ZM124.034 60.8424C123.937 60.9475 123.815 61 123.666 61C123.517 61 123.39 60.9475 123.285 60.8424C123.189 60.7374 123.141 60.6149 123.141 60.4748V51.6777C123.141 51.5377 123.189 51.4151 123.285 51.3101C123.39 51.2051 123.517 51.1525 123.666 51.1525C123.815 51.1525 123.937 51.2051 124.034 51.3101C124.139 51.4151 124.191 51.5377 124.191 51.6777V60.4748C124.191 60.6149 124.139 60.7374 124.034 60.8424ZM129.438 61.1313C128.405 61.1313 127.608 60.8337 127.048 60.2385C126.497 59.6345 126.221 58.7504 126.221 57.5862C126.221 56.4308 126.488 55.5511 127.022 54.9471C127.564 54.3431 128.326 54.0411 129.306 54.0411C129.762 54.0411 130.243 54.0893 130.751 54.1856C130.873 54.2118 130.974 54.2775 131.053 54.3825C131.14 54.4788 131.184 54.5926 131.184 54.7239C131.184 54.8289 131.136 54.9121 131.039 54.9734C130.952 55.0346 130.856 55.0521 130.751 55.0259C130.304 54.9121 129.845 54.8552 129.372 54.8552C127.971 54.8552 127.271 55.7655 127.271 57.5862C127.271 58.5316 127.455 59.2231 127.823 59.6607C128.19 60.0984 128.751 60.3172 129.503 60.3172C129.993 60.3172 130.44 60.2516 130.843 60.1203C130.939 60.0853 131.031 60.0984 131.118 60.1597C131.206 60.221 131.25 60.3041 131.25 60.4092C131.25 60.5405 131.21 60.6586 131.131 60.7637C131.053 60.8687 130.948 60.9387 130.816 60.9737C130.405 61.0788 129.945 61.1313 129.438 61.1313ZM135.296 61.1313C134.534 61.1313 133.974 60.9212 133.615 60.5011C133.265 60.0809 133.09 59.385 133.09 58.4134V54.6714C133.09 54.5313 133.134 54.4131 133.221 54.3169C133.318 54.2206 133.436 54.1724 133.576 54.1724C133.716 54.1724 133.834 54.2206 133.93 54.3169C134.027 54.4131 134.075 54.5313 134.075 54.6714V58.2821C134.075 59.0699 134.193 59.6126 134.429 59.9102C134.666 60.1991 135.042 60.3435 135.558 60.3435C136.031 60.3435 136.477 60.1422 136.898 59.7395C137.318 59.3281 137.528 58.8817 137.528 58.4003V54.6714C137.528 54.5313 137.576 54.4131 137.672 54.3169C137.777 54.2206 137.9 54.1724 138.04 54.1724C138.18 54.1724 138.298 54.2206 138.394 54.3169C138.491 54.4131 138.539 54.5313 138.539 54.6714V60.5273C138.539 60.6586 138.491 60.7724 138.394 60.8687C138.307 60.9562 138.197 61 138.066 61C137.935 61 137.821 60.9562 137.725 60.8687C137.629 60.7724 137.58 60.6586 137.58 60.5273V59.989C137.58 59.9802 137.576 59.9759 137.567 59.9759C137.558 59.9759 137.55 59.9802 137.541 59.989C136.937 60.7505 136.189 61.1313 135.296 61.1313ZM141.921 60.8424C141.824 60.9475 141.702 61 141.553 61C141.404 61 141.277 60.9475 141.172 60.8424C141.076 60.7374 141.028 60.6149 141.028 60.4748V51.6777C141.028 51.5377 141.076 51.4151 141.172 51.3101C141.277 51.2051 141.404 51.1525 141.553 51.1525C141.702 51.1525 141.824 51.2051 141.921 51.3101C142.026 51.4151 142.078 51.5377 142.078 51.6777V60.4748C142.078 60.6149 142.026 60.7374 141.921 60.8424ZM147.876 57.3893C147.009 57.3893 146.353 57.5293 145.907 57.8094C145.469 58.0895 145.25 58.4834 145.25 58.9911C145.25 59.385 145.359 59.7045 145.578 59.9496C145.806 60.1859 146.104 60.3041 146.471 60.3041C147.101 60.3041 147.622 60.094 148.034 59.6739C148.454 59.2537 148.664 58.6979 148.664 58.0064V57.5074C148.664 57.4287 148.624 57.3893 148.546 57.3893H147.876ZM146.261 61.1313C145.666 61.1313 145.18 60.9431 144.804 60.5667C144.427 60.1903 144.239 59.6914 144.239 59.0699C144.239 58.3434 144.528 57.7613 145.106 57.3236C145.683 56.886 146.607 56.6671 147.876 56.6671H148.546C148.624 56.6671 148.664 56.6321 148.664 56.5621V56.3126C148.664 55.7787 148.541 55.4066 148.296 55.1966C148.051 54.9777 147.618 54.8683 146.996 54.8683C146.392 54.8683 145.74 54.9821 145.04 55.2097C144.935 55.2447 144.839 55.2316 144.751 55.1703C144.664 55.109 144.62 55.0215 144.62 54.9077C144.62 54.6013 144.764 54.4044 145.053 54.3169C145.701 54.133 146.349 54.0411 146.996 54.0411C148.003 54.0411 148.699 54.2249 149.084 54.5926C149.478 54.9602 149.675 55.6211 149.675 56.5752V60.5273C149.675 60.6586 149.627 60.7724 149.53 60.8687C149.443 60.9562 149.333 61 149.202 61C149.071 61 148.957 60.9562 148.861 60.8687C148.765 60.7724 148.716 60.6586 148.716 60.5273L148.703 59.8446C148.703 59.8358 148.699 59.8314 148.69 59.8314C148.673 59.8314 148.664 59.8402 148.664 59.8577C148.147 60.7068 147.346 61.1313 146.261 61.1313ZM151.249 55.2228C151.135 55.2228 151.039 55.1878 150.96 55.1178C150.89 55.039 150.855 54.9427 150.855 54.8289C150.855 54.7151 150.89 54.6232 150.96 54.5532C151.039 54.4744 151.135 54.435 151.249 54.435H152.208C152.287 54.435 152.326 54.3956 152.326 54.3169V52.4393C152.326 52.2992 152.374 52.1811 152.47 52.0848C152.567 51.9885 152.685 51.9403 152.825 51.9403C152.965 51.9403 153.083 51.9885 153.179 52.0848C153.276 52.1811 153.324 52.2992 153.324 52.4393V54.3169C153.324 54.3956 153.363 54.435 153.442 54.435H155.411C155.525 54.435 155.617 54.4744 155.687 54.5532C155.766 54.6232 155.805 54.7151 155.805 54.8289C155.805 54.9427 155.766 55.039 155.687 55.1178C155.617 55.1878 155.525 55.2228 155.411 55.2228H153.442C153.363 55.2228 153.324 55.2622 153.324 55.341V58.8073C153.324 59.4375 153.407 59.8533 153.573 60.0546C153.74 60.2472 154.059 60.3435 154.532 60.3435C154.812 60.3435 155.044 60.3216 155.228 60.2779C155.324 60.2603 155.411 60.2822 155.49 60.3435C155.578 60.396 155.622 60.4704 155.622 60.5667C155.622 60.6893 155.582 60.7987 155.503 60.895C155.433 60.9912 155.341 61.0481 155.228 61.0656C155 61.1094 154.711 61.1313 154.361 61.1313C153.591 61.1313 153.057 60.9737 152.759 60.6586C152.47 60.3347 152.326 59.7483 152.326 58.8992V55.341C152.326 55.2622 152.287 55.2228 152.208 55.2228H151.249ZM162.412 57.5862C162.412 55.748 161.712 54.8289 160.311 54.8289C158.911 54.8289 158.211 55.748 158.211 57.5862C158.211 59.4244 158.911 60.3435 160.311 60.3435C161.712 60.3435 162.412 59.4244 162.412 57.5862ZM162.609 60.1991C162.058 60.8206 161.292 61.1313 160.311 61.1313C159.331 61.1313 158.565 60.8206 158.014 60.1991C157.462 59.5776 157.186 58.7066 157.186 57.5862C157.186 56.4658 157.462 55.5948 158.014 54.9734C158.565 54.3519 159.331 54.0411 160.311 54.0411C161.292 54.0411 162.058 54.3519 162.609 54.9734C163.161 55.5948 163.436 56.4658 163.436 57.5862C163.436 58.7066 163.161 59.5776 162.609 60.1991ZM165.835 60.8424C165.738 60.9475 165.616 61 165.467 61C165.318 61 165.191 60.9475 165.086 60.8424C164.99 60.7374 164.942 60.6149 164.942 60.4748V54.6714C164.942 54.5313 164.99 54.4131 165.086 54.3169C165.183 54.2206 165.301 54.1724 165.441 54.1724C165.581 54.1724 165.699 54.2206 165.795 54.3169C165.892 54.4131 165.94 54.5313 165.94 54.6714V55.6824C165.94 55.6911 165.944 55.6955 165.953 55.6955C165.97 55.6955 165.979 55.6867 165.979 55.6692C166.242 55.2316 166.609 54.8814 167.082 54.6188C167.563 54.3475 168.102 54.1987 168.697 54.1724C168.82 54.1637 168.925 54.2031 169.012 54.2906C169.1 54.3781 169.143 54.4832 169.143 54.6057C169.143 54.7195 169.1 54.8202 169.012 54.9077C168.933 54.9952 168.833 55.0434 168.71 55.0521C167.844 55.0871 167.174 55.341 166.701 55.8137C166.229 56.2776 165.992 56.9297 165.992 57.77V60.4748C165.992 60.6149 165.94 60.7374 165.835 60.8424Z" fill="black"/>
</g>
<defs>
<filter id="filter0_d_88_163" x="0.655616" y="51.1525" width="172.239" height="23.9903" filterUnits="userSpaceOnUse" color-interpolation-filters="sRGB">
<feFlood flood-opacity="0" result="BackgroundImageFix"/>
<feColorMatrix in="SourceAlpha" type="matrix" values="0 0 0 0 0 0 0 0 0 0 0 0 0 0 0 0 0 0 127 0" result="hardAlpha"/>
<feOffset dy="7.50282"/>
<feGaussianBlur stdDeviation="1.87571"/>
<feComposite in2="hardAlpha" operator="out"/>
<feColorMatrix type="matrix" values="0 0 0 0 0.000845102 0 0 0 0 0.000845102 0 0 0 0 0.000845102 0 0 0 0.25 0"/>
<feBlend mode="normal" in2="BackgroundImageFix" result="effect1_dropShadow_88_163"/>
<feBlend mode="normal" in="SourceGraphic" in2="effect1_dropShadow_88_163" result="shape"/>
</filter>
</defs>
</svg>
