<svg width="164" height="49" viewBox="-10 -10 184 69" fill="none" xmlns="http://www.w3.org/2000/svg" style="fill-rule:evenodd;clip-rule:evenodd;stroke-linejoin:round;stroke-miterlimit:2;">
<g trandform="translate(10, 10)">

<path d="M9.73175 8.576V22.464C9.73175 22.8053 9.92375 22.976 10.3078 22.976H13.5078C21.1024 22.976 24.8998 20.2667 24.8998 14.848C24.8998 10.0267 21.3798 7.616 14.3398 7.616C13.0598 7.616 11.7158 7.72266 10.3078 7.936C9.92375 8.02133 9.73175 8.23466 9.73175 8.576ZM4.54775 48C3.56642 48 2.71308 47.6373 1.98775 46.912C1.26242 46.1867 0.89975 45.3333 0.89975 44.352V5.248C0.89975 4.224 1.24108 3.30666 1.92375 2.496C2.60642 1.68533 3.45975 1.23733 4.48375 1.152C8.11042 0.810665 11.6091 0.639999 14.9798 0.639999C21.2518 0.639999 25.9451 1.81333 29.0598 4.16C32.1744 6.464 33.7318 9.728 33.7318 13.952C33.7318 16.9813 32.8998 19.648 31.2358 21.952C29.6144 24.256 27.4171 25.8773 24.6438 26.816C24.6011 26.816 24.5798 26.8373 24.5798 26.88C24.5798 26.9653 24.6011 27.008 24.6438 27.008C26.6918 28.288 28.4411 30.8053 29.8918 34.56L33.7318 44.608C34.0304 45.4187 33.9238 46.1867 33.4118 46.912C32.9424 47.6373 32.2811 48 31.4278 48H29.4438C28.3344 48 27.3318 47.7013 26.4358 47.104C25.5398 46.464 24.8998 45.632 24.5158 44.608L20.9318 34.752C20.1638 32.704 19.2891 31.36 18.3078 30.72C17.3264 30.08 15.6411 29.76 13.2518 29.76H10.3078C9.92375 29.76 9.73175 29.952 9.73175 30.336V44.352C9.73175 45.3333 9.36908 46.1867 8.64375 46.912C7.96108 47.6373 7.12908 48 6.14775 48H4.54775ZM46.3903 48C45.4089 48 44.5556 47.6373 43.8303 46.912C43.1049 46.1867 42.7423 45.3333 42.7423 44.352V18.368C42.7423 17.3867 43.1049 16.5333 43.8303 15.808C44.5556 15.0827 45.4089 14.72 46.3903 14.72H48.0543C49.0356 14.72 49.8889 15.0827 50.6143 15.808C51.3396 16.5333 51.7023 17.3867 51.7023 18.368V44.352C51.7023 45.3333 51.3396 46.1867 50.6143 46.912C49.8889 47.6373 49.0356 48 48.0543 48H46.3903ZM46.3903 7.68C45.4089 7.68 44.5556 7.31733 43.8303 6.592C43.1049 5.86666 42.7423 5.01333 42.7423 4.032V3.648C42.7423 2.66667 43.1049 1.81333 43.8303 1.088C44.5556 0.362663 45.4089 -3.8147e-06 46.3903 -3.8147e-06H48.0543C49.0356 -3.8147e-06 49.8889 0.362663 50.6143 1.088C51.3396 1.81333 51.7023 2.66667 51.7023 3.648V4.032C51.7023 5.01333 51.3396 5.86666 50.6143 6.592C49.8889 7.31733 49.0356 7.68 48.0543 7.68H46.3903ZM73.9033 34.56C69.4233 33.5787 66.2233 32.2347 64.3033 30.528C62.4259 28.8213 61.4873 26.6027 61.4873 23.872C61.4873 20.8 62.6179 18.4107 64.8793 16.704C67.1833 14.9547 70.5753 14.08 75.0553 14.08C77.8713 14.08 80.6659 14.336 83.4393 14.848C84.3779 15.0187 85.1246 15.488 85.6793 16.256C86.2766 16.9813 86.5753 17.8347 86.5753 18.816C86.5753 19.6267 86.2553 20.288 85.6153 20.8C84.9753 21.2693 84.2499 21.3973 83.4393 21.184C81.0499 20.5867 78.5326 20.288 75.8873 20.288C72.0473 20.288 70.1273 21.3547 70.1273 23.488C70.1273 24.512 70.4899 25.3653 71.2153 26.048C71.9406 26.7307 73.1779 27.264 74.9272 27.648C79.8339 28.6293 83.1833 29.952 84.9753 31.616C86.8099 33.28 87.7273 35.712 87.7273 38.912C87.7273 41.984 86.5753 44.3733 84.2713 46.08C81.9673 47.7867 78.6179 48.64 74.2233 48.64C71.3646 48.64 68.4419 48.2987 65.4553 47.616C64.5166 47.4027 63.7486 46.912 63.1513 46.144C62.5539 45.3333 62.2552 44.416 62.2552 43.392C62.2552 42.5813 62.5752 41.9627 63.2153 41.536C63.8979 41.1093 64.6233 41.0027 65.3913 41.216C68.1646 41.984 70.7886 42.368 73.2633 42.368C77.1459 42.368 79.0873 41.216 79.0873 38.912C79.0873 37.8027 78.7033 36.928 77.9353 36.288C77.2099 35.648 75.8659 35.072 73.9033 34.56ZM99.5403 48C98.5589 48 97.7056 47.6373 96.9803 46.912C96.2549 46.1867 95.8923 45.3333 95.8923 44.352V3.648C95.8923 2.66667 96.2549 1.81333 96.9803 1.088C97.7056 0.362663 98.5589 -3.8147e-06 99.5403 -3.8147e-06H100.82C101.802 -3.8147e-06 102.655 0.362663 103.38 1.088C104.106 1.81333 104.468 2.66667 104.468 3.648V28.288C104.468 28.3307 104.49 28.352 104.532 28.352H104.596L114.324 17.408C115.903 15.616 117.908 14.72 120.34 14.72H123.028C123.711 14.72 124.18 15.04 124.436 15.68C124.735 16.32 124.65 16.896 124.18 17.408L112.468 30.336C112.255 30.592 112.255 30.8693 112.468 31.168L124.308 45.248C124.778 45.8027 124.842 46.4 124.5 47.04C124.202 47.68 123.711 48 123.028 48H120.34C117.908 48 115.924 47.0613 114.388 45.184L104.596 33.344C104.596 33.3013 104.575 33.28 104.532 33.28C104.49 33.28 104.468 33.3013 104.468 33.344V44.352C104.468 45.3333 104.106 46.1867 103.38 46.912C102.655 47.6373 101.802 48 100.82 48H99.5403Z" fill="white"/>
<path d="M163.059 14.272C163.059 18.2827 161.779 22.144 159.219 25.856C156.701 29.5253 151.795 34.4107 144.499 40.512C144.413 40.5973 144.371 40.6613 144.371 40.704C144.371 40.7467 144.392 40.768 144.435 40.768H159.539C160.52 40.768 161.373 41.1307 162.099 41.856C162.824 42.5387 163.187 43.3707 163.187 44.352C163.187 45.3333 162.824 46.1867 162.099 46.912C161.373 47.6373 160.52 48 159.539 48H136.051C135.069 48 134.216 47.6373 133.491 46.912C132.808 46.1867 132.467 45.3333 132.467 44.352C132.467 41.92 133.384 39.9787 135.219 38.528C142.6 32.64 147.549 28.0533 150.067 24.768C152.584 21.4827 153.843 18.2827 153.843 15.168C153.843 10.432 151.304 8.064 146.227 8.064C143.624 8.064 140.467 8.78933 136.755 10.24C135.944 10.5813 135.176 10.5173 134.451 10.048C133.768 9.57866 133.427 8.93866 133.427 8.128V7.04C133.427 5.93067 133.725 4.928 134.323 4.032C134.963 3.09333 135.795 2.47466 136.819 2.176C140.445 1.152 144.008 0.639999 147.507 0.639999C152.499 0.639999 156.339 1.83467 159.027 4.224C161.715 6.61333 163.059 9.96267 163.059 14.272Z" fill="#D51919"/>
</g>
</svg>
